<svg width="22" height="20" viewBox="0 0 22 20" fill="none" xmlns="http://www.w3.org/2000/svg">
<path d="M19.998 11.242V18H20.9979V20H0.999899V18H1.9998V11.242C1.38423 10.8311 0.879624 10.2745 0.530766 9.62176C0.181908 8.96899 -0.000407692 8.24017 6.84543e-07 7.5C6.84543e-07 6.673 0.223978 5.876 0.632937 5.197L3.34466 0.5C3.43242 0.347985 3.55864 0.221749 3.71064 0.133981C3.86264 0.0462129 4.03506 4.45922e-06 4.21057 0H17.7882C17.9637 4.45922e-06 18.1361 0.0462129 18.2881 0.133981C18.4401 0.221749 18.5664 0.347985 18.6541 0.5L21.3558 5.182C21.9523 6.17287 22.1441 7.35553 21.8912 8.48414C21.6383 9.61275 20.9602 10.6005 19.998 11.242ZM17.9982 11.972C17.3107 12.0491 16.6147 11.9665 15.9643 11.7307C15.3139 11.4948 14.7268 11.1119 14.2486 10.612C13.8288 11.0511 13.3244 11.4005 12.7659 11.6393C12.2074 11.878 11.6063 12.001 10.9989 12.001C10.3916 12.0013 9.79061 11.8786 9.23209 11.6402C8.67357 11.4018 8.16913 11.0527 7.74922 10.614C7.27089 11.1138 6.6837 11.4964 6.03334 11.7321C5.38299 11.9678 4.68701 12.0503 3.9996 11.973V18H17.9982V11.973V11.972ZM4.78852 2L2.35576 6.213C2.11936 6.79714 2.11227 7.44903 2.3359 8.03818C2.55952 8.62733 2.99738 9.11029 3.56182 9.39039C4.12627 9.6705 4.77566 9.72708 5.38004 9.54882C5.98441 9.37055 6.49918 8.9706 6.82131 8.429C7.15628 7.592 8.34116 7.592 8.67712 8.429C8.8624 8.89342 9.18267 9.2916 9.59655 9.5721C10.0104 9.85261 10.4989 10.0025 10.9989 10.0025C11.4989 10.0025 11.9873 9.85261 12.4012 9.5721C12.8151 9.2916 13.1354 8.89342 13.3207 8.429C13.6556 7.592 14.8405 7.592 15.1765 8.429C15.3062 8.74845 15.5007 9.0376 15.7475 9.27828C15.9944 9.51895 16.2884 9.70595 16.611 9.82752C16.9337 9.94909 17.278 10.0026 17.6223 9.98468C17.9666 9.96677 18.3034 9.87782 18.6117 9.72343C18.92 9.56903 19.193 9.35253 19.4136 9.08753C19.6342 8.82253 19.7975 8.51477 19.8935 8.18357C19.9894 7.85238 20.0157 7.50493 19.9709 7.16305C19.9261 6.82118 19.8111 6.49227 19.633 6.197L17.2083 2H4.78952H4.78852Z" fill="#A4A4A4"/>
</svg>
